<mxfile host="app.diagrams.net" modified="2023-05-15T23:58:30.906Z" agent="Mozilla/5.0 (Windows NT 10.0; Win64; x64) AppleWebKit/537.36 (KHTML, like Gecko) Chrome/110.0.0.0 Safari/537.36" etag="FgGSDQOgkP8gIios1lyY" version="21.3.2" type="device">
  <diagram name="Página-1" id="jsQomzUjXCSumbpPs3e9">
    <mxGraphModel dx="880" dy="484" grid="1" gridSize="10" guides="1" tooltips="1" connect="1" arrows="1" fold="1" page="1" pageScale="1" pageWidth="827" pageHeight="1169" math="0" shadow="0">
      <root>
        <mxCell id="0" />
        <mxCell id="1" parent="0" />
        <mxCell id="O_-ekn1fxQvo3HgpInFX-1" value="BoardGame" style="swimlane;fontStyle=1;align=center;verticalAlign=top;childLayout=stackLayout;horizontal=1;startSize=26;horizontalStack=0;resizeParent=1;resizeParentMax=0;resizeLast=0;collapsible=1;marginBottom=0;whiteSpace=wrap;html=1;" vertex="1" parent="1">
          <mxGeometry x="280" y="120" width="160" height="160" as="geometry" />
        </mxCell>
        <mxCell id="O_-ekn1fxQvo3HgpInFX-2" value="+ id:int&lt;br&gt;+name:String&lt;br&gt;+url:String" style="text;strokeColor=none;fillColor=none;align=left;verticalAlign=top;spacingLeft=4;spacingRight=4;overflow=hidden;rotatable=0;points=[[0,0.5],[1,0.5]];portConstraint=eastwest;whiteSpace=wrap;html=1;" vertex="1" parent="O_-ekn1fxQvo3HgpInFX-1">
          <mxGeometry y="26" width="160" height="54" as="geometry" />
        </mxCell>
        <mxCell id="O_-ekn1fxQvo3HgpInFX-3" value="" style="line;strokeWidth=1;fillColor=none;align=left;verticalAlign=middle;spacingTop=-1;spacingLeft=3;spacingRight=3;rotatable=0;labelPosition=right;points=[];portConstraint=eastwest;strokeColor=inherit;" vertex="1" parent="O_-ekn1fxQvo3HgpInFX-1">
          <mxGeometry y="80" width="160" height="8" as="geometry" />
        </mxCell>
        <mxCell id="O_-ekn1fxQvo3HgpInFX-4" value="+ getId():int&lt;br&gt;+getName():String&lt;br&gt;+getUrl():String&lt;br&gt;+IniciarJogo():void" style="text;strokeColor=none;fillColor=none;align=left;verticalAlign=top;spacingLeft=4;spacingRight=4;overflow=hidden;rotatable=0;points=[[0,0.5],[1,0.5]];portConstraint=eastwest;whiteSpace=wrap;html=1;" vertex="1" parent="O_-ekn1fxQvo3HgpInFX-1">
          <mxGeometry y="88" width="160" height="72" as="geometry" />
        </mxCell>
        <mxCell id="O_-ekn1fxQvo3HgpInFX-18" style="edgeStyle=orthogonalEdgeStyle;rounded=0;orthogonalLoop=1;jettySize=auto;html=1;exitX=0.5;exitY=0;exitDx=0;exitDy=0;entryX=0;entryY=0.5;entryDx=0;entryDy=0;" edge="1" parent="1" source="O_-ekn1fxQvo3HgpInFX-5" target="O_-ekn1fxQvo3HgpInFX-4">
          <mxGeometry relative="1" as="geometry" />
        </mxCell>
        <mxCell id="O_-ekn1fxQvo3HgpInFX-5" value="StrategyGame" style="swimlane;fontStyle=1;align=center;verticalAlign=top;childLayout=stackLayout;horizontal=1;startSize=26;horizontalStack=0;resizeParent=1;resizeParentMax=0;resizeLast=0;collapsible=1;marginBottom=0;whiteSpace=wrap;html=1;" vertex="1" parent="1">
          <mxGeometry x="90" y="320" width="160" height="110" as="geometry" />
        </mxCell>
        <mxCell id="O_-ekn1fxQvo3HgpInFX-6" value="+rank:int&lt;br&gt;" style="text;strokeColor=none;fillColor=none;align=left;verticalAlign=top;spacingLeft=4;spacingRight=4;overflow=hidden;rotatable=0;points=[[0,0.5],[1,0.5]];portConstraint=eastwest;whiteSpace=wrap;html=1;" vertex="1" parent="O_-ekn1fxQvo3HgpInFX-5">
          <mxGeometry y="26" width="160" height="24" as="geometry" />
        </mxCell>
        <mxCell id="O_-ekn1fxQvo3HgpInFX-7" value="" style="line;strokeWidth=1;fillColor=none;align=left;verticalAlign=middle;spacingTop=-1;spacingLeft=3;spacingRight=3;rotatable=0;labelPosition=right;points=[];portConstraint=eastwest;strokeColor=inherit;" vertex="1" parent="O_-ekn1fxQvo3HgpInFX-5">
          <mxGeometry y="50" width="160" height="8" as="geometry" />
        </mxCell>
        <mxCell id="O_-ekn1fxQvo3HgpInFX-8" value="getRank():int&lt;br&gt;realizarJogada():void&lt;br&gt;calcularPontuação():void" style="text;strokeColor=none;fillColor=none;align=left;verticalAlign=top;spacingLeft=4;spacingRight=4;overflow=hidden;rotatable=0;points=[[0,0.5],[1,0.5]];portConstraint=eastwest;whiteSpace=wrap;html=1;" vertex="1" parent="O_-ekn1fxQvo3HgpInFX-5">
          <mxGeometry y="58" width="160" height="52" as="geometry" />
        </mxCell>
        <mxCell id="O_-ekn1fxQvo3HgpInFX-11" value="BrassBirmingham" style="swimlane;fontStyle=1;align=center;verticalAlign=top;childLayout=stackLayout;horizontal=1;startSize=26;horizontalStack=0;resizeParent=1;resizeParentMax=0;resizeLast=0;collapsible=1;marginBottom=0;whiteSpace=wrap;html=1;" vertex="1" parent="1">
          <mxGeometry x="460" y="320" width="190" height="128" as="geometry" />
        </mxCell>
        <mxCell id="O_-ekn1fxQvo3HgpInFX-12" value="//Os métodos são especificos para esse jogo espefecificamente" style="text;strokeColor=none;fillColor=none;align=left;verticalAlign=top;spacingLeft=4;spacingRight=4;overflow=hidden;rotatable=0;points=[[0,0.5],[1,0.5]];portConstraint=eastwest;whiteSpace=wrap;html=1;" vertex="1" parent="O_-ekn1fxQvo3HgpInFX-11">
          <mxGeometry y="26" width="190" height="34" as="geometry" />
        </mxCell>
        <mxCell id="O_-ekn1fxQvo3HgpInFX-13" value="" style="line;strokeWidth=1;fillColor=none;align=left;verticalAlign=middle;spacingTop=-1;spacingLeft=3;spacingRight=3;rotatable=0;labelPosition=right;points=[];portConstraint=eastwest;strokeColor=inherit;" vertex="1" parent="O_-ekn1fxQvo3HgpInFX-11">
          <mxGeometry y="60" width="190" height="8" as="geometry" />
        </mxCell>
        <mxCell id="O_-ekn1fxQvo3HgpInFX-14" value="CriarTabuleiro():void&lt;br&gt;fazerAção():void&lt;br&gt;finalizarPartida():void" style="text;strokeColor=none;fillColor=none;align=left;verticalAlign=top;spacingLeft=4;spacingRight=4;overflow=hidden;rotatable=0;points=[[0,0.5],[1,0.5]];portConstraint=eastwest;whiteSpace=wrap;html=1;" vertex="1" parent="O_-ekn1fxQvo3HgpInFX-11">
          <mxGeometry y="68" width="190" height="60" as="geometry" />
        </mxCell>
        <mxCell id="O_-ekn1fxQvo3HgpInFX-20" value="1" style="text;html=1;align=center;verticalAlign=middle;resizable=0;points=[];autosize=1;strokeColor=none;fillColor=none;" vertex="1" parent="1">
          <mxGeometry x="175" y="288" width="30" height="30" as="geometry" />
        </mxCell>
        <mxCell id="O_-ekn1fxQvo3HgpInFX-21" value="0..*" style="text;html=1;align=center;verticalAlign=middle;resizable=0;points=[];autosize=1;strokeColor=none;fillColor=none;" vertex="1" parent="1">
          <mxGeometry x="240" y="208" width="40" height="30" as="geometry" />
        </mxCell>
        <mxCell id="O_-ekn1fxQvo3HgpInFX-23" value="Extends" style="endArrow=block;endSize=16;endFill=0;html=1;rounded=0;exitX=0.5;exitY=0;exitDx=0;exitDy=0;" edge="1" parent="1" source="O_-ekn1fxQvo3HgpInFX-11">
          <mxGeometry width="160" relative="1" as="geometry">
            <mxPoint x="410" y="270" as="sourcePoint" />
            <mxPoint x="510" y="220" as="targetPoint" />
            <Array as="points">
              <mxPoint x="530" y="210" />
              <mxPoint x="510" y="220" />
            </Array>
          </mxGeometry>
        </mxCell>
      </root>
    </mxGraphModel>
  </diagram>
</mxfile>
